<mxfile host="65bd71144e">
    <diagram id="-qJy749HqStN1jytHuhT" name="Page-1">
        <mxGraphModel dx="974" dy="795" grid="1" gridSize="10" guides="1" tooltips="1" connect="1" arrows="1" fold="1" page="1" pageScale="1" pageWidth="850" pageHeight="1100" math="0" shadow="0">
            <root>
                <mxCell id="0"/>
                <mxCell id="1" parent="0"/>
                <mxCell id="2" value="" style="shape=image;verticalLabelPosition=bottom;labelBackgroundColor=default;verticalAlign=top;aspect=fixed;imageAspect=0;image=data:image/png,iVBORw0KGgoAAAANSUhEUgAABPYAAAT2CAMAAACWWt1rAAAAAXNSR0IB2cksfwAAAAlwSFlzAAALEwAACxMBAJqcGAAAAvdQTFRFAAAABAQEfX19iIiISkpKjIyM////ioqKUFBQ/v7+Jycn8fHxDQ0N1dXVAQEBq6urd3d3RERE/Pz8HR0d6urqBwcHysrKm5ubZWVlMTEx9vb2EhIS3t7eAgICuLi4T09PJiYm8PDwDAwM1NTUqampdXV1QUFB+/v7GRkZ5ubmBQUFxMTEmJiYXFxcLy8v9fX13d3dHBwcLS0tPj4+Tk5OVVVVW1tbZmZmaGhohoaGbGxsPz8/MzMzIyMjGBgYCQkJERERKysrR0dHYGBgdHR0hYWFlpaWpqamt7e3yMjI2dnZ6enp+vr68/Pz3NzcxsbGsbGxnJychISEbm5uTU1Ng4ODUlJSiYmJo6OjwMDA7e3tzc3Nra2tXl5eNDQ0CwsLAwMDIiIiSEhIlZWVu7u74ODg/f39s7OzU1NTJSUlFBQURUVFqKio+Pj45eXlr6+veHh4CgoK09PTf39/sLCw4uLiv7+/fHx8ODg4Ozs7tLS06+vrFhYWcHBwDg4OwcHB9/f3b29vHh4ekZGRzs7OFRUVGhoa5+fnWFhYLCwsvb29+fn5xcXFUVFRmZmZk5OTEBAQoKCgNzc3Li4uDw8POjo6oqKi9PT0tbW1KSkpkpKSgICAWVlZ7+/vS0tLHx8f7u7uOTk50NDQVlZWx8fHYmJi2traBgYG29vb39/furq6wsLC4eHhNTU1j4+PISEhgoKCtra2Kioqy8vLICAgSUlJTExMn5+fampqFxcXQEBA8vLy4+Pj7OzsExMTubm5MjIy2NjYrq6u6OjoeXl5vr6+Q0NDPT09CAgIV1dXjY2NvLy8JCQkrKysMDAwz8/PGxsb5OTkZGRkycnJbW1tYWFhY2Nj1tbWp6encXFxsrKylJSUdnZ20tLSgYGBNjY219fXzMzMnp6eX19fpaWlXV1da2trh4eHQkJCRkZG0dHRZ2dnaWlpi4uLnZ2dl5eXPDw8w8PDWlpacnJyoaGhjo6Oenp6pKSkmpqac3NzkJCQKCgoe3t7rJawggAALjNJREFUeJzt3Qu4rVVd73GmIBHtdhqgGG5RQMJtGOIFNQUUAQ2kY8BRNGB7IUQw9KQHBM0DimbkLSBEuWzSwkJFE1FIEAwVkBBTARUhNbyABiLq8aB58Mp+ZV/Wmusd4z/G/H8+jz3AWnO+49fD3t+Hvdaa75ysBZDKJHoAQF2yByQje0AysgckI3tAMrIHJCN7QDKyByQje0AysgckI3tAMrIHJCN7QDKyByQje0AysgckI3tAMrIHJCN7QDKyByQje0AysgckI3tAMrIHJCN7QDKyByQje0AysgckI3tAMrIHJCN7QDKyByQje0AysgckI3tAMrIHJCN7QDKyByQje0AysgckI3tAMrIHJCN7QDKyByQje0AysgckI3tAMrIHJCN7QDKyByQje0AysgckI3tAMrIHJCN7QDKyByQje0AysgckI3tAMrIHJCN7QDKyByQje0AysgckI3tAMrIHJCN7QDKyByQje0AysgckI3tAMrIHJCN7QDKyByQje0AysgckI3tAMrIHJCN7QDKyByQje0AysgckI3tAMrIHJCN7QDKyByQje0AysgckI3tAMrIHJCN7QDKyByQje0AysgckI3tAMrIHJCN7QDKyByQje0AysgckI3tAMrIHJCN7QDKyByQje0AysgckI3tAMrIHJCN7QDKyByQje0AysgckI3tAMrIHJCN7QDKyByQje0AysgckI3tAMrIHJCN7QDKyByQje0AysgckI3tAMrIHJCN7QDKyByQje0AysgckI3tAMrIHJCN7QDKyByQje0AysgckI3tAMrIHJCN7QDKyByQje0AysgckI3tAMrIHJCN7QDKyByQje0AysgckI3tAMrIHJCN7QDKyByQje0AysgckI3tAMrIHJCN7QDKyByQje0AysgckI3tAMrIHJCN7QDKyByQje0AysgckI3tAMrIHJCN7QDKyByQje0AysgckI3tAMrIHJCN7QDKyByQje0AysgckI3tAMrIHJCN7QDKyByQje0AysgckI3tAMrIHJCN7QDKyByQje0AysgckI3tAMrIHJCN7QDKyByQje0AysgckI3tAMrIHJCN7QDKyByQje0AysgckI3tAMrIHJCN7QDKyByQje0AysgckI3tAMrIHJCN7QDKyByQje0AysgckI3tAMrIHJCN7QDKyByQje0AysgckI3tAMrIHJCN7QDKyByQje0AysgckI3tAMrIHJCN7QDKyByQje0AysgckI3tAMrIHJCN7QDKyByQje0AysgckI3tAMrIHJCN7QDKyByQje0AysgckI3tAMrIHJCN7QDKyByQje0AysgckI3tAMrIHJCN7QDKyByQje0AysgckI3tAMrIHJCN7QDKyByQje0AysgckI3tAMrIHJCN7QDKyByQje0AysgckI3tAMrIHJCN7QDKyByQje0AysgckI3tAMrIHJCN7QDKyByQje0AysgckI3tAMrIHJCN7QDKyByQje0AysgckI3tAMrIHJCN7QDKyByQje0AysgckI3tAMrIHJCN7QDKyByQje0AysgckI3tAMrIHJCN7QDKyByQje0AysgckI3tAMrIHJCN7QDKyByQje0AysgckI3tAMrIHJCN7QDKyByQje0AysgckI3tAMrIHJCN7QDKyByQje0AysgckI3tAMrIHJCN7QDKyByQje0AysgckI3tAMrIHJCN7QDKyByQje0AysgckI3tAMrIHJCN7QDKyByQje0AysgckI3tAMrIHJCN7QDKyByQje0AysgckI3tAMrIHJCN7QDKyByQje0AysgckI3tAMrIHJCN7QDKyByQje0AysgckI3tAMrIHJCN7QDKyByQje0AysgckI3tAMrIHJCN7QDKyByQje0AysgckI3tAMrIHJCN7QDKyByQje9CIyaTmb8fJDyse1hjZg0bcvervxskPap7WFtmDNqw3+VHN42QPCLb+5Paq58keEGtR7QzJHhBq8eT7lU+UPSDUPb5X+0TZAyLdc3Jb7SNlDwi0weTW6mfKHhBno8kt9Q+VPSDOvW8OOFT2gDAb/1fEqbIHRLnP5JsRx8oeEGSTyY0h58oeEGPJ5OsxB8seEGPttYMOlj0gxKY3Vr3tygpkD4hw/8kNUUfLHhBgs8lXws6WPaC+xff6ctzhsgfU98AvBR4ue0B1W06uDzxd9oDatpp8MfJ42QMqWzr5Quj5sgdU9nufjz1f9oC6tv5c8ADZA6p6yOTq4AWyB9S0yUZXRU+QPWbHZr81mVy3+WStyR3/u2attR502R0f+807/m/pj/77k9tN7nBR9ELibruyAtmjaztOVnDemh69688feN3nq79ZFz+393ujF8gefdrh5q1+tM5k8u0bpv0q0V6Tye3rTianj7qKNXv4Z6Nuu7IC2aMry+5o3T0mk7eP83tn2WXbnXzApZ8c5VrMxUEfDLvtygpkj148f/L3f3L6spPGv/DzJpNzdnvD+NflLvbf4PjoCT8he3RggwfsMJm8qeQJB/76ZPLaH5c8gTvs+uHoBT8le7Rto+d+f/3JsVWO2mTPtz/3VVVOyurlr41e8DOyR7v+4j9v2Xry6ponLnrB3SZ/UfPAVB52nzV+r70O2evPOo39WezB/17iqpt99cjJ6yN+zGTt3zx4nSMDzp19r568InrCz8lef36tsewdffjol3ztyQdMAtOzy1bHbxb+SoKZs/TZR0RP+AXZ68+MZ2/RUZOvFf3uxZxs/rkjfJlvXG84LHrBL8lef2Y5e2/8t/W3aORPmAdu8Zdfi94wS8Jvu7IC2evPzGbvjuatW+DH8qa330P+LHrCzDju5OjbrqxA9vozm9k7/tLGmvdTT3jKwdETZsOOiz8YPWEFstefGczektuOmRw6wpQC9vtiGz9h27clRzb1382y15+Zy95Jh2wR+oYyq7fLHlf+bfSG7r21rf9olr3+zFb2NnrN+e8aa0khJ56y5fLoDX079ZLl0RMGZK8/s5S90577pH8Zb0kxe2/X1J/RevO45/xp9IQh2evP7GTv9FeuHfkm0fOw7D8+5sak03rRQ58bPeFXyF5/ZiR7y3aaPHvkJSXtv+4J0RN69fR3Ry/4VbLXn5nI3tIjJ8vGHlLW2ou/6z/4pvGYy6MX3IXs9WcGsnfGObvtV2BJYW+78jXREzp0+o2NvOxmBbLXn+6zd8ZxNzf8AyurscsW7/pK9IbebL/Nm6Mn3JXs9afz7E3efmG/b9zz9gv9DN+8LD3qmdETVkL2+tN19hb/7kYfKrakgn+Y7Bk9oSvvfnr0gpWRvf70nL3DN2zmnmtTOvDM+He37sfJz49esFKy159+s3fW+ac08CapC/XyLy6PntCLbQ9o85XWstefXrO3w4uurPq+GMWc+W9HR0/ow/G/vSx6wsrJXn86zd56p+9beEg1S275VvSEHix+wjnRE1ZB9vrTZfYe9+K9iw+p59DH7RE9oQOHNfuW67LXnw6zN9niu9+ssKSevXbdP3pC856wxfLoCasie/3pL3sPOWbmfurjQY/1Et3VO/sf3hk9YZVkrz+9Ze+MM/9fI+8KPaYjHrFb9ISm7XDfM6MnrJrs9aez7J30kYZ//S/AgU/+w+gJLfvAH0UvWA3Z609X2Vv8T8+era/q3emYDXq6cVZlj7oiesHqyF5/esreuRf9db0htW24fJfoCa06fIP2bruyAtnrT0fZO/VdPdwyfmrvv3XmvlUzjpft2PYXAGSvP91kb9mtH5iB16Ktzgee8r3oCS2avOSN0RNWT/b600v2LpjsWndIgOUvuSF6QoPu3vpvLdnrTyfZu/AbM/NitNV44UP3iZ7QnEd8pvX/yJe9/vSRva3vdnXtISHe++ToBa1Zf3J79IQ1kb3+9JC9ZZu/sv6QGJt+IXpBW/5ip52jJ6yR7PWng+y9aO2/CRgSY9GGn4+e0JLFZz8xesKayV5/2s/e9tfcEjEkyPkHXBM9oSEXPyF6wRzIXn+az94/fz/DNzPu9OG3Lo+e0IyP7d7DmwnLXn9az955X/3TmCFhXvTa6AWtOPoHx0ZPmAvZ60/j2VvnZbNx6/h5WPT+R0dPaMMlN/XxshXZ60/b2TvnsnTVW2ute617XfSEJjz1/dEL5kb2+tN09i595QzeW2/NLn5k9IIWbPxf0QvmSPb603L2Hvnt6+OGBFq2wWuiJ8S7z6SXe4zJXn8azt6jPtX6y5JK+bX1boqeEO2Y331G9IS5kr3+tJu9fX99eeCOWH80m/eQnrtlB/9B9IQ5k73+NJu9TdfL+Sfcnzrm8Q+PnhDraWdFL5g72etPq9m756EJv4d7p48/LHpBqE1v7OjrG7LXn0azd/hnzw0eEuw3bo5eEOj+k55uPCh7/Wkze1fs2dOv+xIufdPy6AlhFvUVkr7Wjkv2xvHT7F05eUT0jnCXPyR6QZTFk+9HT5gX2etPi9nb4fjcX9n6qUOXZ/0hlgd+KXrB/MhefxrM3pKn5bm/3mo8/GPRC2JsOensW/iy158Gs9f8e8bUsfm9LoqeEGGDR/X2tqCy15/2srfdJ6M3NOKwNLfSX8FGDz8/esJ8yV5/msvetz+d8vYDK3HUjW+InlDf7/V3U33Z609r2bviR76J+wvbfyh6QXWffWj0gvmTvf60lr1Nsv/A3go2/2a2b+ZeeGGHr82Rvf60lj1WcOXS6AV1bbLRVdETpiB7/ZG9hn1qu1ujJ9S05O92jZ4wDdnrj+y1bI93Ri+o6Y/Pjl4wFdnrj+y17O/3jl5Q0V7v7+i2KyuQvf7IXtPeun/0gmoO+mCn382Svf7IXtP+favoBbXsv8Hx0ROmJHv9kb2mHfPtV0VPqOSabu84I3v9kb22XfDY6AV1fG7r6AVTk73+yF7b3vbir0RPqOFh9+n3JYmy1x/Za9xZu0UvqGD7bd4cPWF6stcf2WvcZ7aMXlDeGTccET1hAWSvP7LXuEWbzv6NuL7w4OgFCyF7/ZG91l21RfSC0h55ZfSCBZG9/she667ePHpBYVc86+roCQsie/2Rvea97gXRC4racfEHoycsjOz1R/aaN9u/rZYc+WfRExZotv/9rJ7sUcjzbl0ePaGg67p/+Z3s9Uf22nfhY6IXlHPqJcujJyyU7PVH9tq3Y7+vYFiTs3/9ydETFkz2+iN77Xve8lm9yfIO9z0zesLCyV5/ZK8Dn3tA9IJC3vSS6AUjkL3+yF4HdviX6AVl7Pm+6AVjkL3+yF4Hfu070QuKeOlsvBO87PVH9nrwO/8RvaCAczeejXeCl73+yF4PPv270QvGt/SoZ0ZPGIfs9Uf2evDiV0cvGN8rXxm9YCSy1x/Z68Guz9gnesLYTn5+9IKxyF5/ZK8LFz06esHItj3g0OgJY5G9/sheF67ZLHrBuBbN0E2jZa8/steFV784esGoFp/9xOgJ45G9/sheFx7wtKOjJ4zpbutELxiR7PVH9vpwwAnRC0Z0z8lt0RNGJHv9kb0+/PC/oxeM56wz3xk9YUyy1x/Z68PfPC96wWguuc8DoyeMSvb6I3t9eMufzczNp748Y28FJ3v9kb1OrPO96AUj+eAe0QtGJnv9kb1OfHFJ9IJxHP7dk6InjEz2+iN7nfjsbHxBbFZuu7IC2euP7HXipUdFLxjD5CVvjJ4wOtnrj+x14sQXzcL3NC57bPSC8clef2SvFw/+ZPSChXvdy34UPWF8stcf2evFWbtFL1iw9Se3R08oQPb6I3u9uKr7H3db9Infj55Qguz1R/Z68cfviF6wQIufdWL0hCJkrz+y14t73Bi9YIEufkL0gjJkrz+y14u9/iF6wcJ8bPdZuu3KCmSvP7LXjcdcGL1gIY7+wbHREwqRvf7IXjceeXH0ggW4ZI9boieUInv9kb1unLJv9IIFeOr7oxcUI3v9kb1uXNDxKxy2m4GftV4V2euP7HVjt7OiF0zt+tfP2m1XViB7/ZG9brzwr6IXTOuCm3r+8/mayF5/ZK8bh/b6rdBl++8aPaEk2euP7HVj7UdeFD1hOjP+a0z2+jPjvyRnynEHRi+YyqY3zuBtV1Yge/2RvX685w+jF0zj/pMboieUJXv9kb1+HPmK6AVTmNHbrqxA9voje/34cYd3q1s8+X70hNJkrz+y14/r7hu9YP6uXRq9oDjZ64/s9WPPM6IXzNuWk+ujJxQne/2RvX4sf0b0gvnaYDIL73u0BrLXH9nrx4M+Fb1gnpZOvhA9oQLZ64/sdeT1h0QvmJ/XHx69oAbZ64/sdaSzn1e+4QHRC6qQvf7IXkd+4+boBfNxxe7fjJ5Qhez1R/Y68rS3RS+Yh00mvb/n0RzJXn9kryPPf2P0grlb8uALoidUInv9kb2OHP+n0Qvm7tH/Fr2gFtnrj+x15OMPi14wZw//7GzfdmUFstcf2evIS4+KXjBXM3/blRXIXn9kryNXbx69YI42m3wlekI9stcf2etIN7eVP+Qt0Qsqkr3+yF5Hdn1f9IK5+dzW0Qtqkr3+yF5PtrgqesFc/ME3Z/+2KyuQvf7IXk9ecWT0gjm48js7RU+oSvb6I3s9ec6J0QvW7Ix3fCB6Ql2y15+Zzt4uFx17/FVHnnfAo++59Oqd99z+ydF7FuyMPaMXrNlzenoF3Rhkrz8zm7173f57x35un8GHjnnOC/Z73/KYOeP4yr2jF6zRvv8YvaA22evPTGZv7V3WufFfV/6pY97xqvcvrzpmTKfsG71gTbLcdmUFstefGczef37+lt1X9/mz9rpnr7c6v2Gj6AVrsMlGXXyveVSy159Zy96B//mlK9b4oI2ufmuPbzm71lrr3xK9YPWWHL939IT6ZK8/s5W9D7z5Gx+Z0wM3e+rnzy28pYQTDohesHrXbRW9IIDs9WeWsnevk899w5wf/OovnVZwSiEP+3j0gtU65z3LoycEkL3+zE72zn/Jofus+VEr2HrrdxaaUszXNohesDqXf+qg6AkRZK8/s5K9Y559xrzfVmyrVz6zxJSCXv7y6AWr8aKX3jd6QgjZ68+MZG+/PfaY4lmTu609+pKidjwvesFqvOkl0QtiyF5/ZiJ7S7c9dcpnbr3jSaMuKezrvx29YNU+s230giCy158ZyN7aX33YdVM/+RvvPnTEKaX98TuiF6zSLX/S8n+JliR7/ek/e4e+eEGv2DphvY6+Dn+/a6MXrMpWky9GT4gie/3pPnvH/viFC7vAhbfvNs6SCg56U/SCVVj68dZfP1KO7PWn8+wd8cCFfzN2ywN6uIvdT7341dELVuEt8/42+uyQvf70nb0n/ce/j3CVnT7Wy5sbvv1/Ri9YuVs3jF4QSPb603X2XvyxC0e5zt17+bf3qv8dvWCltj2gp+8LjU32+tNx9tb+m6NHelvCjc7bbpwLldZm9t648X7REyLJXn/6zd6idb8+2rVO+turR7tWSU1mb/HZT4yeEEr2+tNt9jZ8zJivqP1O0y92/aUms3e3daIXxJK9/vSavbf8j3uMebmlJ+485uVKaTF7B59xW/SEWLLXn06z94kXfnjcC+71z+Ner4wGs3fWmd3dx2ZkstefPrP3iTeP/s6Jf/Wysa9YQHvZ22Hno6MnRJO9/nSZvQLVW+vgt45+yfG1l73bGr45QiWy158es/e82wu8S/bi5x4//kXH1lz2PjjN/b5mjOz1p8Ps7fW1kb+u9zNXbVPiquNqLXun39jN6/rKkb3+9Je9B/2v/Ytcd4f92r8VS2PZO3fjR0RPaIDs9ae77O1yUKkbpjz1/YUuPJ62sjd5+ruiJ7RA9vrTXfbKvUP2eat9U/EmtJW9794zekETZK8/vWXvqf9Y7NJLFjV/p8ymsnfp46IXtEH2+tNZ9j70zJHuPrAy97653LXH0VL2Hr+oxzdYL0D2+tNX9q4++vSCV1/vvwtefBQNZe/4cz4UPaERstefrrK3yZMK/MDenTZb2vq74LSTvcXPKvqvoiey15+esrf2/m8ue8CTzy97/QVrJ3vfG/VOEF2Tvf70lL2vlb471LfuU/iAhWome+lvu7IC2etPR9l712FXFT5h068VPmChWsneadceGz2hHbLXn36y96AvfK/0Ea/+P6VPWKBGsnfJTXtGT2iI7PWnn+w99NLyZ+z2L+XPWIhGstfB61kqkr3+dJO9Km8R+09/UuGQBWgje9t9MnpBU2SvP71k7+7rfavCKZc9tsIhC9BE9q5//UnRE5oie/3pJXv//KQap3zzd2qcMr0WsnfBTftGT2iL7PWnk+yd+tKCL0q70zeW1Dhleg1kb9n+u0ZPaIzs9aeP7D3g2YdVOedxFb5tshANZO9pZ0UvaI3s9aeP7L385XXOmRywvM5BU4rP3vNO/1H0hNbIXn+6yN7OO7+w0kmN/wRLePbWn9wevKA9stefLrJ3+UNqnXTjfWudNJXo7C36xO/HDmiR7PWnh+wdcmaV72f8ROM/uBecvcUffnTo+W2Svf70kL093lntqO//VrWjphGcvWuXhh7fKNnrTwfZe+Bn6521y4X1zppCbPa2nFwfeXyrZK8/HWTvoop/slp77XpnTSE0extMbg08vV2y15/2s/fRmu/FetgbKh42f5HZ2+iCh8Ud3jLZ60/72bvwMRUP2/N9FQ+bv8jsvf7wuLObJnv9aT57p1b93uqjrqh52rwFZu/vnxV2dONkrz/NZ6/it3HvcNU2NU+bt7jsPfaJNW781SXZ60/r2Vt+WLWf2fuJr2xe87R5C8veJpMbg05un+z1p/Xs1bnh1C/dumHV4+YrKntLHnxBzME9kL3+NJ69TSbXVT3vL/+i6nHzFZW9nS+KObcLstefxrN363p1z5O9lVlv4rYrqyZ7/Wk8e7V/ScneStx/ckPEsb2Qvf7I3oDs3dVmk6rfVeqO7PVH9gZk7662+HLAoR2Rvf7I3oDs3cUPfrP+mV2Rvf7I3oDs/aqXfvq86mf2Rfb6I3sDsvcrrvzOTrWP7I3s9Uf2BmRvaOnHN6p8Yn9krz+yNyB7Q895W+UDOyR7/ZG9AdkbeOSVdc/rkuz1R/YGZG9FD5lcXfW8Pslef2RvQPZWsOMtV9U8rley1x/ZG5C9Oy05fu+Kp/VL9vojewOyd6e931vxsI7JXn9kb0D2fumc9yyvd1jPZK8/sjcge79w+acOqnZW32SvP7I3IHs/t/+x96111PwdcXlLL5iTvf7I3oDs/dybXlLrpCk89MaWbgAoe/2RvQHZ+5mjjql00DQef+4DZK8NsleE7A3Uyt7pNx5Z56BpHPKt02WvEbJXhOwNVMre9tu8uco5U9l19wPXkr1GyF4RsjdQJ3tLj3pmjWOmtM1la8leK2SvCNkbqJO9txxS45Qp3bbuWrLXDNkrQvYGqmTv5OdXOGRaO+23z1qy1wzZK0L2Bmpkb9sDDi1/yLT2esbuP/mL7DVC9oqQvYEK2XvjxvsVP2Nqy3546k//KnuNkL0iZG+gfPYWn/3E0kcswAkH/OyvstcI2StC9gbKZ+/Pjyt9wgJ89ITlP/sb2WuE7BUhewPFs3fwGbcVPmEBzrn0Fz9ELXuNkL0iZG+gdPZOu9+Tyx6wELts/Zpf/K3sNUL2ipC9gcLZu+S4M4tef2GOfMUv/1b2GiF7RcjeQOHsfXmLopdfmPtde+ffy14jZK8I2Rsom72v3r/k1Rdo+TVH3/kPstcI2StC9gaKZu/wDRq+7coRe2y7wj/JXiNkrwjZGyiZvXM3fkS5iy/Y485f8Z9krxGyV4TsDRTM3uTp7yp27YXb8jODf5S9RsheEbI3UDB77356sUsv3MmnXDT4Z9lrhOwVIXsD5bLX9P/jJ1582vADstcI2StC9gaKZe/2C3crdOURrP2qP/+Vj8heI2SvCNkbKJW9RZ/4/TIXHsWX7vOrH5G9RsheEbI3UCh7iz/86CLXHcee77jLr1HZa4TsFSF7A4Wy98P1i1x2HOf/6xF3+ZjsNUL2ipC9gTLZ+9juDd92ZdGPb77rB2WvEbJXhOwNFMne0T84tsBVx7L+LSv5oOw1QvaKkL2BEtm75KY9x7/oaJ51xq0r+ajsNUL2ipC9gRLZ+6+Nx7/maPbf5wkr+7DsNUL2ipC9gQLZe9QVo19yPAd+8uKVflz2GiF7RcjewPjZu/71J419yRE99NKVf1z2GiF7RcjewOjZu+CmfUe+4pgef+4qPiF7jZC9ImRvYOzsLdt/13EvOKpDvnX6Kj4je42QvSJkb2Ds7H3rLi/7asiuux+4qk/JXiNkrwjZGxg5e+tNfjTq9ca1zWWr/JTsNUL2ipC9gXGzt/7k9jEvN7Lb1l3152SvEbJXhOwNjJq9zW5q+ffrTvvts+pPyl4jZK8I2RsYM3uLJ98f72Kj2+sZu6/ms7LXCNkrQvYGxszePb433rVGt+yHp67u07LXCNkrQvYGRsze13e4frRrje8Fr1vtp2WvEbJXhOwNjJe9DSYre4l/Kz56wvLVfl72GiF7RcjewGjZ22iysvs5teKcS9fwRuWy1wjZK0L2BkbL3r1Xcu/OZuyy9WvW8AjZa4TsFSF7A2Nl74YHjHOdMp6yxjcql71GyF4RsjcwUvau2P2bo1ynjPtdu8aHyF4jZK8I2RsYJ3ubTG4c4zKFLL/m6DU+RvYaIXtFyN7AKNlb8uALRrhKKUfsse2aHyR7jZC9ImRvYJTsfW3TES5SzOPOn8ODZK8RsleE7A2Mkb2Hf7bl265s+Zm5PEr2GiF7RcjewAjZu/+kpWT8qpNPuWguD5O9RsheEbI3sPDsbTb5yhhDCjnx4tPm9DjZa4TsFSF7AwvO3uJ7fXmUIWWs/ao/n9sDZa8RsleE7A0sOHtP/MgoOwr50lzvcS97jZC9ImRvYKHZO+8FLd92Zc93zPUXo+w1QvaKkL2BBWZvq8kXRxpSwvn/esRcHyp7jZC9ImRvYGHZW/rxjcYaUsCiH8/99giy1wjZK0L2BhaWvZvvPdaOEtafx62wZK8RsleE7A0sKHtbf260HQU864x53PdU9hohe0XI3sBCsveQydXjDRnd/vs8YR6Plr1GyF4RsjewgOzteMtVIw4Z24GfvHg+D5e9RsheEbI3MH32lhy/95hDxvbQS+f1cNlrhOwVIXsD02dv7/eOuWNsjz93fo+XvUbIXhGyNzB19s55z/Ixd4zskG+dPr8nyF4jZK8I2RuYNnuXf+qgcYeMatfdD5znM2SvEbJXhOwNTJm9HXZe833aA21z2XyfIXuNkL0iZG9gyuzd9tsj7xjVbevO+ymy1wjZK0L2BqbL3stfO/aOMe203z7zfo7sNUL2ipC9gamyd8L3jhx9yHj2esbu83+S7DVC9oqQvYFpsrf9Nm8ef8holv3w1CmeJXuNkL0iZG9giuwtPeqZBYaM5gWvm+ZZstcI2StC9gamyN4bDiuwYzQfPWH5NE+TvUbIXhGyNzD/7N26YYkdYznn0um+7Ch7jZC9ImRvYN7ZO+7klm+7ssvWr5nuibLXCNkrQvYG5pu9HRd/sMyQcTzlXVM+UfYaIXtFyN7APLO3ZN+/LjRkFPe7dtpnyl4jZK8I2RuYZ/beenChHaNYfs3UL5mTvUbIXhGyNzC/7B18xm2lhoxgw7O3nfq5stcI2StC9gbmlb3T7vfkYkNG8MUl0z9X9hohe0XI3sB8snfJcWeWG7JwW35mAU+WvUbIXhGyNzCf7H3gj8rtWLiTT7loAc+WvUbIXhGyNzCP7D3m8oI7FuzEi09byNNlrxGyV4TsDcw9e23fdmWta/dc0NP/X0s/hP2HozT40/93jKvUJntFyN7AnLN37saPKDqEsW1yffSCacheEbI3MNfsTZ4+7esfCCJ7NcnewIxk76BTyu5gdLJXk+wNyB4xZK8m2RuQPWLIXk2yNyB7xJC9mmRvQPaIIXs1yd6A7BFD9mqSvQHZI4bs1SR7A7JHDNmrSfYGZI8YsleT7A3IHjFkrybZG5A9YsheTbI3IHvEkL2aZG9A9oghezXJ3oDsEUP2apK9AdkjhuzVJHsDskcM2atJ9gZkjxiyV5PsDcgeMWSvJtkbkD1iyF5Nsjcge8SQvZpkb0D2iCF7NcnegOwRQ/Zqkr0B2SOG7NUkewOyRwzZq0n2BmSPGLJXk+wNyB4xZK8m2RuQPWLIXk2yNyB7xJC9mmRvQPaIIXs1yd6A7BFD9mqSvQHZI4bs1SR7A7JHDNmrSfYGZI8YsleT7A3IHjFkrybZG5A9YsheTbI3IHvEkL2aZG9A9oghezXJ3oDsEUP2apK9AdkjhuzVJHsDskcM2atJ9gZkjxiyV5PsDcgeMWSvJtkbkD1iyF5Nsjcge8SQvZpkb0D2iCF7NcnegOwRQ/Zqkr0B2SOG7NUkewOyRwzZq0n2BmSPGLJXk+wNyB4xZK8m2RuQPWLIXk2yNyB7xJC9mmRvQPaIIXs1yd6A7BFD9mqSvQHZI4bs1SR7A7JHDNmrSfYGZI8YsleT7A3IHjFkrybZG5A9YsheTbI3IHvEkL2aZG9A9oghezXJ3oDsEUP2apK9AdkjhuzVJHsDskcM2atJ9gZkjxiyV5PsDcgeMWSvJtkbkD1iyF5Nsjcge8SQvZpkb0D2iCF7NcnegOwRQ/Zqkr0B2SOG7NUkewOyRwzZq0n2BmSPGLJXk+wNyB4xZK8m2RuQPWLIXk2yNyB7xJC9mmRvQPaIIXs1yd6A7BFD9mqSvQHZI4bs1SR7A7JHDNmrSfYGZI8YsleT7A3IHjFkrybZG5A9YsheTbI3IHvEkL2aZG9A9oghezXJ3oDsEUP2apK9AdkjhuzVJHsDskcM2atJ9gZkjxiyV5PsDcgeMWSvJtkbkD1iyF5Nsjcge8SQvZpkb0D2iCF7NcnegOwRQ/Zqkr0B2SOG7NUkewOyRwzZq0n2BmSPGLJXk+wNyB4xZK8m2RuQPWLIXk2yNyB7xJC9mmRvQPaIIXs1yd6A7BFD9mqSvQHZI4bs1SR7A7JHDNmrSfYGZI8YsleT7A3IHjFkrybZG5A9YsheTbI3IHvEkL2aZG9A9oghezXJ3oDsEUP2apK9AdkjhuzVJHsDskcM2atJ9gZkjxiyV5PsDcgeMWSvJtkbkD1iyF5Nsjcge8SQvZpkb0D2iCF7NcnegOwRQ/Zqkr0B2SOG7NUkewOyRwzZq0n2BmSPGLJXk+wNyB4xZK8m2RuQPWLIXk2yNyB7xJC9mmRvQPaIIXs1yd6A7BFD9mqSvQHZI4bs1SR7A7JHDNmrSfYGZI8YsleT7A3IHjFkrybZG5A9YsheTbI3IHvEkL2aZG9A9oghezXJ3oDsEUP2apK9AdkjhuzVJHsDskcM2atJ9gZkjxiyV5PsDcgeMWSvpuP+LnrBau33grrnbbBZ3fPmad2Pzu1xstcd2YOFkb3uyB4szJXHRy8Y0+T06AWrtf8oXye6x1+PcZXaZA/K8PXnZskelCF7zZI9KEP2miV7UIbsNUv2oAzZa5bsQRmy1yzZgzJkr1myB2XIXrNkD8qQvWbJHpQhe82SPShD9pole1CG7DVL9qAM2WuW7EEZstcs2YMyZK9ZsgdlyF6zZA/KkL1myR6UIXvNkj0oQ/aaJXtQhuw1S/agDNlrluxBGbLXLNmDMmSvWbIHZches2QPypC9ZskelCF7zZI9KEP2miV7UIbsNUv2oAzZa5bsQRmy1yzZgzJkr1myB2XIXrNkD8qQvWbJHpQhe82SPShD9pole1CG7DVL9qAM2WuW7EEZstcs2YMyZK9ZsgdlyF6zZA/KkL1myR6UIXvNkj0oQ/aaJXtQhuw1S/agDNlrluxBGbLXLNmDMmSvWbIHZches2QPypC9ZskelCF7zZI9KEP2miV7UIbsNUv2oAzZa5bsQRmy1yzZgzJkr1myB2XIXrNkD8qQvWbJHpQhe82SPShD9pole1CG7DVL9qAM2WuW7EEZstcs2YMyZK9ZsgdlyF6zZA/KkL1myR6UIXvNkj0oQ/aaJXtQhuw1S/agDNlrluxBGbLXLNmDMmSvWbIHZches2QPypC9ZskelCF7zZI9KEP2miV7UIbsNUv2oAzZa5bsQRmy1yzZgzJkr1myB2XIXrNkD8qQvWbJHpQhe82SPShD9pole1CG7DVL9qAM2WuW7EEZstcs2YMyZK9ZsgdlyF6zZA/KkL1myR6UIXvNkj0oQ/aaJXtQhuw1S/agDNlrluxBGbLXLNmDMmSvWbIHZches2QPypC9ZskelCF7zZI9KOO6j0QvWK3tN4teEEf2gGRkD0hG9oBkZA9IRvaAZGQPSEb2gGRkD0hG9oBkZA9IRvaAZGQPSEb2gGRkD0hG9oBkZA9IRvaAZGQPSEb2gGRkD0hG9oBkZA9IRvaAZGQPSEb2gGRkD0hG9oBkZA9IRvaAZGQPSEb2gGRkD0hG9oBkZA9IRvaAZGQPSEb2gGRkD0hG9oBkZA9IRvaAZGQPSEb2gGRkD0hG9oBkZA9IRvaAZGQPSEb2gGRkD0hG9oBkZA9IRvaAZGQPSEb2gGRkD0hG9oBkZA9IRvaAZGQPSEb2gGRkD0hG9oBkZA9IRvaAZGQPSEb2gGRkD0hG9oBkZA9IRvaAZGQPSEb2gGRkD0hG9oBkZA9IRvaAZGQPSEb2gGRkD0hG9oBkZA9IRvaAZGQPSEb2gGRkD0hG9oBkZA9IRvaAZGQPSEb2gGRkD0hG9oBkZA9IRvaAZGQPSEb2gGRkD0hG9oBkZA9IRvaAZGQPSEb2gGRkD0hG9oBkZA9IRvaAZGQPSEb2gGRkD0hG9oBkZA9IRvaAZGQPSEb2gGRkD0hG9oBkZA9IRvaAZGQPSEb2gGRkD0hG9oBkZA9IRvaAZGQPSEb2gGRkD0hG9oBkZA9IRvaAZGQPSEb2gGRkD0hG9oBkZA9IRvaAZGQPSEb2gGRkD0hG9oBkZA9IRvaAZGQPSEb2gGRkD0hG9oBkZA9IRvaAZGQPSEb2gGRkD0hG9oBkZA9IRvaAZGQPSEb2gGRkD0hG9oBkZA9IRvaAZGQPSEb2gGRkD0hG9oBkZA9IRvaAZGQPSEb2gGRkD0hG9oBkZA9IRvaAZGQPSEb2gGRkD0hG9oBkZA9IRvaAZGQPSEb2gGRkD0hG9oBkZA9IRvaAZGQPSEb2gGRkD0hG9oBkZA9IRvaAZGQPSEb2gGRkD0hG9oBkZA9IRvaAZGQPSEb2gGRkD0hG9oBkZA9IRvaAZGQPSEb2gGRkD0hG9oBkZA9IRvaAZGQPSEb2gGRkD0hG9oBkZA9IRvaAZGQPSEb2gGRkD0hG9oBkZA9IRvaAZGQPSEb2gGRkD0hG9oBkZA9IRvaAZGQPSEb2gGRkD0hG9oBkZA9IRvaAZGQPSEb2gGRkD0hG9oBkZA9IRvaAZGQPSEb2gGRkD0hG9oBkZA9IRvaAZGQPSEb2gGRkD0hG9oBkZA9IRvaAZGQPSEb2gGRkD0hG9oBkZA9IRvaAZGQPSEb2gGRkD0hG9oBkZA9IRvaAZGQPSEb2gGRkD0hG9oBkZA9IRvaAZGQPSEb2gGRkD0hG9oBkZA9IRvaAZGQPSEb2gGRkD0hG9oBkZA9IRvaAZGQPSEb2gGRkD0hG9oBkZA9IRvaAZGQPSEb2gGRkD0hG9oBkZA9IRvaAZGQPSEb2gGRkD0hG9oBkZA9IRvaAZGQPSEb2gGRkD0hG9oBkZA9IRvaAZGQPSEb2gGRkD0hG9oBkZA9IRvaAZGQPSEb2gGRkD0hG9oBkZA9IRvaAZGQPSEb2gGRkD0hG9oBkZA9IRvaAZGQPSEb2gGRkD0hG9oBkZA9IRvaAZP4/qzQ1q5xEGioAAAAASUVORK5CYII=;" parent="1" vertex="1">
                    <mxGeometry x="10" y="20" width="70" height="70" as="geometry"/>
                </mxCell>
                <mxCell id="3" value="&lt;h1 style=&quot;margin-top: 0px;&quot;&gt;&lt;font style=&quot;font-size: 22px;&quot;&gt;readme-boilerplate&lt;/font&gt;&lt;/h1&gt;" style="text;html=1;whiteSpace=wrap;overflow=hidden;rounded=0;spacing=2;verticalAlign=top;horizontal=1;" parent="1" vertex="1">
                    <mxGeometry x="90" y="10" width="250" height="40" as="geometry"/>
                </mxCell>
                <mxCell id="4" value="&lt;font style=&quot;color: rgb(153, 153, 153);&quot;&gt;This diagram serves as an template and can be deleted.&lt;/font&gt;" style="text;html=1;align=left;verticalAlign=middle;whiteSpace=wrap;rounded=0;" vertex="1" parent="1">
                    <mxGeometry x="90" y="40" width="190" height="30" as="geometry"/>
                </mxCell>
            </root>
        </mxGraphModel>
    </diagram>
</mxfile>
